<?xml version="1.0" encoding="utf-8"?>
<!-- Generator: Adobe Illustrator 28.2.0, SVG Export Plug-In . SVG Version: 6.00 Build 0)  -->
<svg version="1.1" id="Layer_1" xmlns="http://www.w3.org/2000/svg" xmlns:xlink="http://www.w3.org/1999/xlink" x="0px" y="0px"
	 viewBox="0 0 3000 1500" style="enable-background:new 0 0 3000 1500;" xml:space="preserve">
<style type="text/css">
	.st0{opacity:0.1;}
	.st1{clip-path:url(#SVGID_00000112610485749518540090000016816772482970399881_);}
	.st2{fill:none;stroke:#666666;stroke-width:2.5861;stroke-linecap:round;stroke-linejoin:round;stroke-miterlimit:10;}
	.st3{fill:none;stroke:#4D4D4D;stroke-width:6.4653;stroke-linecap:round;stroke-linejoin:round;stroke-miterlimit:10;}
	.st4{fill:none;}
	.st5{clip-path:url(#SVGID_00000007390312964681263320000009227524390451294868_);}
</style>
<g class="st0">
	<defs>
		
			<rect id="SVGID_1_" x="776.37" transform="matrix(-1 -1.224647e-16 1.224647e-16 -1 3776.3721 1500)" class="st0" width="2223.63" height="1500"/>
	</defs>
	<clipPath id="SVGID_00000033337241190200228550000008607293967438408122_">
		<use xlink:href="#SVGID_1_"  style="overflow:visible;"/>
	</clipPath>
	<g style="clip-path:url(#SVGID_00000033337241190200228550000008607293967438408122_);">
		<polygon class="st2" points="3097.84,-299.08 3216.5,-299.08 3275.84,-196.32 3216.5,-93.55 3097.84,-93.55 3038.51,-196.32 		"/>
		<polygon class="st2" points="2919.84,-401.85 3038.51,-401.85 3097.84,-299.08 3038.51,-196.32 2919.84,-196.32 2860.51,-299.08 
					"/>
		<polygon class="st2" points="2385.85,-299.08 2504.52,-299.08 2563.85,-196.32 2504.52,-93.55 2385.85,-93.55 2326.52,-196.32 		
			"/>
		<polygon class="st2" points="2563.85,-196.32 2682.51,-196.32 2741.85,-93.55 2682.51,9.22 2563.85,9.22 2504.52,-93.55 		"/>
		<polyline class="st2" points="2326.52,-196.32 2385.85,-93.55 2326.52,9.22 2207.86,9.22 2148.52,-93.55 2207.86,-196.32 		"/>
		<polyline class="st2" points="1851.86,-196.32 1970.53,-196.32 2029.86,-93.55 1970.53,9.22 1851.86,9.22 1792.53,-93.55 		"/>
		<polygon class="st2" points="1495.87,-196.32 1614.53,-196.32 1673.87,-93.55 1614.53,9.22 1495.87,9.22 1436.54,-93.55 		"/>
		<polyline class="st2" points="1673.87,-93.55 1792.53,-93.55 1851.86,9.22 1792.53,111.98 1673.87,111.98 1614.53,9.22 		"/>
		<polygon class="st2" points="3097.84,111.98 3216.5,111.98 3275.84,214.75 3216.5,317.52 3097.84,317.52 3038.51,214.75 		"/>
		<polygon class="st2" points="2919.84,9.22 3038.51,9.22 3097.84,111.98 3038.51,214.75 2919.84,214.75 2860.51,111.98 		"/>
		<polyline class="st2" points="3275.84,9.22 3216.5,111.98 3097.84,111.98 3038.51,9.22 3097.84,-93.55 3216.5,-93.55 		"/>
		<polyline class="st2" points="2860.51,-93.55 2919.84,-196.32 3038.51,-196.32 3097.84,-93.55 3038.51,9.22 2919.84,9.22 		"/>
		<polyline class="st2" points="2682.51,214.75 2741.85,111.98 2860.51,111.98 2919.84,214.75 2860.51,317.52 		"/>
		<polyline class="st2" points="2504.52,111.98 2563.85,9.22 2682.51,9.22 2741.85,111.98 2682.51,214.75 		"/>
		<polyline class="st2" points="2207.86,9.22 2326.52,9.22 2385.85,111.98 2326.52,214.75 2207.86,214.75 2148.52,111.98 		"/>
		<polygon class="st2" points="2029.86,111.98 2148.52,111.98 2207.86,214.75 2148.52,317.52 2029.86,317.52 1970.53,214.75 		"/>
		<polygon class="st2" points="2207.86,625.82 2326.52,625.82 2385.85,728.58 2326.52,831.35 2207.86,831.35 2148.52,728.58 		"/>
		<polygon class="st2" points="1851.86,9.22 1970.53,9.22 2029.86,111.98 1970.53,214.75 1851.86,214.75 1792.53,111.98 		"/>
		<polyline class="st2" points="1851.86,214.75 1792.53,317.52 1673.87,317.52 1614.53,214.75 1673.87,111.98 1792.53,111.98 		"/>
		<polyline class="st2" points="1792.53,-93.55 1673.87,-93.55 1614.53,-196.32 1673.87,-299.08 1792.53,-299.08 1851.86,-196.32 		
			"/>
		<polyline class="st2" points="1673.87,317.52 1792.53,317.52 1851.86,420.28 1792.53,523.05 1673.87,523.05 		"/>
		<polyline class="st2" points="2504.52,523.05 2385.85,523.05 2326.52,420.28 2385.85,317.52 2504.52,317.52 2563.85,420.28 		"/>
		<polyline class="st2" points="2029.86,317.52 2148.52,317.52 2207.86,420.28 2148.52,523.05 2029.86,523.05 1970.53,420.28 		"/>
		<polyline class="st2" points="1495.87,214.75 1614.53,214.75 1673.87,317.52 		"/>
		<polyline class="st2" points="1614.53,9.22 1495.87,9.22 1436.54,-93.55 1495.87,-196.32 1614.53,-196.32 1673.87,-93.55 		"/>
		<polygon class="st2" points="1614.53,420.28 1495.87,420.28 1436.54,317.52 1495.87,214.75 1614.53,214.75 1673.87,317.52 		"/>
		<polygon class="st2" points="1317.87,-299.08 1436.54,-299.08 1495.87,-196.32 1436.54,-93.55 1317.87,-93.55 1258.54,-196.32 		
			"/>
		<polyline class="st2" points="1317.87,-93.55 1436.54,-93.55 1495.87,9.22 1436.54,111.98 1317.87,111.98 		"/>
		<polyline class="st2" points="3038.51,625.82 2919.84,625.82 2860.51,523.05 2919.84,420.28 3038.51,420.28 3097.84,523.05 		"/>
		<polyline class="st2" points="2741.85,523.05 2860.51,523.05 2919.84,625.82 2860.51,728.58 2741.85,728.58 2682.51,625.82 		"/>
		<polyline class="st2" points="2563.85,625.82 2504.52,728.58 2385.85,728.58 2326.52,625.82 2385.85,523.05 2504.52,523.05 		"/>
		<polyline class="st2" points="2148.52,523.05 2207.86,420.28 2326.52,420.28 2385.85,523.05 2326.52,625.82 		"/>
		<polyline class="st2" points="1851.86,625.82 1792.53,523.05 1851.86,420.28 1970.53,420.28 2029.86,523.05 1970.53,625.82 		"/>
		<polygon class="st2" points="2919.84,625.82 3038.51,625.82 3097.84,728.58 3038.51,831.35 2919.84,831.35 2860.51,728.58 		"/>
		<polyline class="st2" points="2860.51,934.11 2741.85,934.11 2682.51,831.35 2741.85,728.58 2860.51,728.58 2919.84,831.35 		"/>
		<polyline class="st2" points="3216.5,934.11 3097.84,934.11 3038.51,831.35 3097.84,728.58 3216.5,728.58 3275.84,831.35 		"/>
		<polygon class="st2" points="2563.85,625.82 2682.51,625.82 2741.85,728.58 2682.51,831.35 2563.85,831.35 2504.52,728.58 		"/>
		<polyline class="st2" points="2682.51,625.82 2563.85,625.82 2504.52,523.05 2563.85,420.28 2682.51,420.28 2741.85,523.05 		"/>
		<polygon class="st2" points="2563.85,214.75 2682.51,214.75 2741.85,317.52 2682.51,420.28 2563.85,420.28 2504.52,317.52 		"/>
		<polyline class="st2" points="2385.85,934.11 2326.52,831.35 2385.85,728.58 2504.52,728.58 2563.85,831.35 2504.52,934.11 		"/>
		<path class="st2" d="M1228.87,728.58"/>
		<polyline class="st2" points="2919.84,1036.88 2860.51,1139.65 2741.85,1139.65 2682.51,1036.88 2741.85,934.11 2860.51,934.11 		
			"/>
		<polygon class="st2" points="2563.85,831.35 2682.51,831.35 2741.85,934.11 2682.51,1036.88 2563.85,1036.88 2504.52,934.11 		"/>
		<polyline class="st2" points="2860.51,934.11 2919.84,831.35 3038.51,831.35 3097.84,934.11 3038.51,1036.88 2919.84,1036.88 		
			"/>
		<path class="st2" d="M2385.85,934.11"/>
		<polyline class="st2" points="3038.51,1242.41 3097.84,1139.65 3216.5,1139.65 3275.84,1242.41 3216.5,1345.18 3097.84,1345.18 		
			"/>
		<polygon class="st2" points="2919.84,1036.88 3038.51,1036.88 3097.84,1139.65 3038.51,1242.41 2919.84,1242.41 2860.51,1139.65 
					"/>
		<polyline class="st2" points="2860.51,1139.65 2741.85,1139.65 2682.51,1242.41 		"/>
		<polyline class="st2" points="2919.84,1242.41 2860.51,1345.18 2741.85,1345.18 		"/>
		<polygon class="st2" points="2919.84,1242.41 3038.51,1242.41 3097.84,1345.18 3038.51,1447.95 2919.84,1447.95 2860.51,1345.18 
					"/>
		<polyline class="st2" points="2682.51,1447.95 2741.85,1345.18 2860.51,1345.18 		"/>
		<polyline class="st2" points="2919.84,1447.95 2860.51,1550.71 2741.85,1550.71 		"/>
		<polyline class="st2" points="3275.84,1447.95 3216.5,1550.71 3097.84,1550.71 3038.51,1447.95 3097.84,1345.18 3216.5,1345.18 		
			"/>
		<polyline class="st2" points="2919.84,1653.48 2860.51,1550.71 2919.84,1447.95 3038.51,1447.95 3097.84,1550.71 		"/>
	</g>
	<g style="clip-path:url(#SVGID_00000033337241190200228550000008607293967438408122_);">
		<g>
			<g>
				<polyline class="st3" points="1678.76,111.98 1673.88,111.98 1671.06,107.1 				"/>
				<polyline class="st3" points="1671.06,116.87 1673.88,111.98 1678.76,111.98 				"/>
			</g>
			
				<rect x="1668.99" y="107.1" transform="matrix(-1 -1.224647e-16 1.224647e-16 -1 3347.7554 223.9652)" class="st4" width="9.77" height="9.77"/>
		</g>
		<g>
			<g>
				<polyline class="st3" points="1856.75,420.28 1851.86,420.28 1849.04,415.4 				"/>
				<polyline class="st3" points="1849.04,425.17 1851.86,420.28 1856.75,420.28 				"/>
			</g>
			
				<rect x="1846.97" y="415.39" transform="matrix(-1 -1.224647e-16 1.224647e-16 -1 3703.7241 840.5641)" class="st4" width="9.77" height="9.77"/>
		</g>
		<g>
			<g>
				<polyline class="st3" points="2212.74,214.75 2207.86,214.75 2205.03,209.86 				"/>
				<polyline class="st3" points="2205.03,219.64 2207.86,214.75 2212.74,214.75 				"/>
			</g>
			
				<rect x="2202.97" y="209.86" transform="matrix(-1 -1.224647e-16 1.224647e-16 -1 4415.7109 429.4983)" class="st4" width="9.77" height="9.77"/>
		</g>
		<g>
			<g>
				<polyline class="st3" points="2568.73,9.22 2563.85,9.22 2561.03,4.33 				"/>
				<polyline class="st3" points="2561.03,14.1 2563.85,9.22 2568.73,9.22 				"/>
			</g>
			
				<rect x="2558.96" y="4.33" transform="matrix(-1 -1.224647e-16 1.224647e-16 -1 5127.6978 18.4324)" class="st4" width="9.77" height="9.77"/>
		</g>
		<g>
			<g>
				<polyline class="st3" points="3102.73,-93.55 3097.84,-93.55 3095.02,-98.44 				"/>
				<polyline class="st3" points="3095.02,-88.66 3097.84,-93.55 3102.73,-93.55 				"/>
			</g>
			
				<rect x="3092.95" y="-98.44" transform="matrix(-1 -1.224647e-16 1.224647e-16 -1 6195.6782 -187.1005)" class="st4" width="9.77" height="9.77"/>
		</g>
		<g>
			<g>
				<polyline class="st3" points="2924.73,214.75 2919.84,214.75 2917.02,209.86 				"/>
				<polyline class="st3" points="2917.02,219.64 2919.84,214.75 2924.73,214.75 				"/>
			</g>
			
				<rect x="2914.96" y="209.86" transform="matrix(-1 -1.224647e-16 1.224647e-16 -1 5839.6846 429.4983)" class="st4" width="9.77" height="9.77"/>
		</g>
		<g>
			<g>
				<polyline class="st3" points="2924.73,625.82 2919.84,625.82 2917.02,620.93 				"/>
				<polyline class="st3" points="2917.02,630.7 2919.84,625.82 2924.73,625.82 				"/>
			</g>
			
				<rect x="2914.96" y="620.93" transform="matrix(-1 -1.224647e-16 1.224647e-16 -1 5839.6846 1251.63)" class="st4" width="9.77" height="9.77"/>
		</g>
		<g>
			<g>
				<polyline class="st3" points="2568.73,831.35 2563.85,831.35 2561.03,826.46 				"/>
				<polyline class="st3" points="2561.03,836.23 2563.85,831.35 2568.73,831.35 				"/>
			</g>
			
				<rect x="2558.96" y="826.46" transform="matrix(-1 -1.224647e-16 1.224647e-16 -1 5127.6978 1662.6959)" class="st4" width="9.77" height="9.77"/>
		</g>
		<g>
			<g>
				<polyline class="st3" points="3102.73,1139.65 3097.84,1139.65 3095.02,1134.76 				"/>
				<polyline class="st3" points="3095.02,1144.53 3097.84,1139.65 3102.73,1139.65 				"/>
			</g>
			
				<rect x="3092.95" y="1134.76" transform="matrix(-1 -1.224647e-16 1.224647e-16 -1 6195.6782 2279.2947)" class="st4" width="9.77" height="9.77"/>
		</g>
		<g>
			<g>
				<polyline class="st3" points="2499.63,317.52 2504.52,317.52 2507.34,322.4 				"/>
				<polyline class="st3" points="2507.34,312.63 2504.52,317.52 2499.63,317.52 				"/>
			</g>
			<rect x="2499.63" y="312.63" class="st4" width="9.77" height="9.77"/>
		</g>
		<g>
			<g>
				<polyline class="st3" points="1965.64,9.22 1970.53,9.22 1973.35,14.1 				"/>
				<polyline class="st3" points="1973.35,4.33 1970.53,9.22 1965.64,9.22 				"/>
			</g>
			<rect x="1965.64" y="4.33" class="st4" width="9.77" height="9.77"/>
		</g>
		<g>
			<g>
				<polyline class="st3" points="1431.65,-93.55 1436.54,-93.55 1439.36,-88.66 				"/>
				<polyline class="st3" points="1439.36,-98.44 1436.54,-93.55 1431.65,-93.55 				"/>
			</g>
			<rect x="1431.65" y="-98.44" class="st4" width="9.77" height="9.77"/>
		</g>
		<g>
			<g>
				<polyline class="st3" points="2677.63,1036.88 2682.51,1036.88 2685.34,1041.77 				"/>
				<polyline class="st3" points="2685.34,1031.99 2682.51,1036.88 2677.63,1036.88 				"/>
			</g>
			<rect x="2677.63" y="1031.99" class="st4" width="9.77" height="9.77"/>
		</g>
	</g>
	<g style="clip-path:url(#SVGID_00000033337241190200228550000008607293967438408122_);">
		<line class="st3" x1="2685.34" y1="1237.53" x2="2682.51" y2="1242.41"/>
		<line class="st3" x1="2861.92" y1="315.07" x2="2859.1" y2="319.96"/>
		<line class="st3" x1="2863.33" y1="-98.44" x2="2860.51" y2="-93.55"/>
		<line class="st3" x1="2209.27" y1="-198.76" x2="2206.44" y2="-193.87"/>
		<line class="st3" x1="2505.93" y1="109.54" x2="2503.11" y2="114.43"/>
		<line class="st3" x1="1971.94" y1="623.37" x2="1969.12" y2="628.26"/>
		<line class="st3" x1="2685.34" y1="1443.06" x2="2682.51" y2="1447.95"/>
		<line class="st3" x1="2917.02" y1="1648.59" x2="2919.84" y2="1653.48"/>
		<line class="st3" x1="2384.44" y1="931.67" x2="2387.26" y2="936.56"/>
		<line class="st3" x1="3094.36" y1="518.16" x2="3097.19" y2="523.05"/>
		<line class="st3" x1="1848.39" y1="620.93" x2="1851.21" y2="625.82"/>
		<line class="st3" x1="2741.85" y1="1550.71" x2="2748.12" y2="1550.71"/>
		<line class="st3" x1="1670.73" y1="523.05" x2="1677" y2="523.05"/>
		<line class="st3" x1="1315.9" y1="111.44" x2="1322.18" y2="111.44"/>
	</g>
</g>
<g class="st0">
	<defs>
		<rect id="SVGID_00000092444026325270587730000004839597154593728167_" class="st0" width="2223.63" height="1500"/>
	</defs>
	<clipPath id="SVGID_00000029726436114211458230000016981789465609923501_">
		<use xlink:href="#SVGID_00000092444026325270587730000004839597154593728167_"  style="overflow:visible;"/>
	</clipPath>
	<g style="clip-path:url(#SVGID_00000029726436114211458230000016981789465609923501_);">
		<polygon class="st2" points="-2.07,1859.56 -120.74,1859.56 -180.07,1756.8 -120.74,1654.03 -2.07,1654.03 57.26,1756.8 		"/>
		<polygon class="st2" points="175.92,1962.33 57.26,1962.33 -2.07,1859.56 57.26,1756.8 175.92,1756.8 235.26,1859.56 		"/>
		<polygon class="st2" points="709.91,1859.56 591.25,1859.56 531.92,1756.8 591.25,1654.03 709.91,1654.03 769.25,1756.8 		"/>
		<polygon class="st2" points="531.92,1756.8 413.25,1756.8 353.92,1654.03 413.25,1551.26 531.92,1551.26 591.25,1654.03 		"/>
		<polyline class="st2" points="769.25,1756.8 709.91,1654.03 769.25,1551.26 887.91,1551.26 947.24,1654.03 887.91,1756.8 		"/>
		<polyline class="st2" points="1243.9,1756.8 1125.24,1756.8 1065.91,1654.03 1125.24,1551.26 1243.9,1551.26 1303.24,1654.03 		
			"/>
		<polygon class="st2" points="1599.9,1756.8 1481.23,1756.8 1421.9,1654.03 1481.23,1551.26 1599.9,1551.26 1659.23,1654.03 		"/>
		<polyline class="st2" points="1421.9,1654.03 1303.24,1654.03 1243.9,1551.26 1303.24,1448.5 1421.9,1448.5 1481.23,1551.26 		"/>
		<polygon class="st2" points="-2.07,1448.5 -120.74,1448.5 -180.07,1345.73 -120.74,1242.96 -2.07,1242.96 57.26,1345.73 		"/>
		<polygon class="st2" points="175.92,1551.26 57.26,1551.26 -2.07,1448.5 57.26,1345.73 175.92,1345.73 235.26,1448.5 		"/>
		<polyline class="st2" points="-180.07,1551.26 -120.74,1448.5 -2.07,1448.5 57.26,1551.26 -2.07,1654.03 -120.74,1654.03 		"/>
		<polyline class="st2" points="235.26,1654.03 175.92,1756.8 57.26,1756.8 -2.07,1654.03 57.26,1551.26 175.92,1551.26 		"/>
		<polyline class="st2" points="413.25,1345.73 353.92,1448.5 235.26,1448.5 175.92,1345.73 235.26,1242.96 		"/>
		<polyline class="st2" points="591.25,1448.5 531.92,1551.26 413.25,1551.26 353.92,1448.5 413.25,1345.73 		"/>
		<polyline class="st2" points="887.91,1551.26 769.25,1551.26 709.91,1448.5 769.25,1345.73 887.91,1345.73 947.24,1448.5 		"/>
		<polygon class="st2" points="1065.91,1448.5 947.24,1448.5 887.91,1345.73 947.24,1242.96 1065.91,1242.96 1125.24,1345.73 		"/>
		<polygon class="st2" points="887.91,934.66 769.25,934.66 709.91,831.9 769.25,729.13 887.91,729.13 947.24,831.9 		"/>
		<polygon class="st2" points="1243.9,1551.26 1125.24,1551.26 1065.91,1448.5 1125.24,1345.73 1243.9,1345.73 1303.24,1448.5 		"/>
		<polyline class="st2" points="1243.9,1345.73 1303.24,1242.96 1421.9,1242.96 1481.23,1345.73 1421.9,1448.5 1303.24,1448.5 		"/>
		<polyline class="st2" points="1303.24,1654.03 1421.9,1654.03 1481.23,1756.8 1421.9,1859.56 1303.24,1859.56 1243.9,1756.8 		"/>
		<polyline class="st2" points="1421.9,1242.96 1303.24,1242.96 1243.9,1140.2 1303.24,1037.43 1421.9,1037.43 		"/>
		<polyline class="st2" points="591.25,1037.43 709.91,1037.43 769.25,1140.2 709.91,1242.96 591.25,1242.96 531.92,1140.2 		"/>
		<polyline class="st2" points="1065.91,1242.96 947.24,1242.96 887.91,1140.2 947.24,1037.43 1065.91,1037.43 1125.24,1140.2 		"/>
		<polyline class="st2" points="1599.9,1345.73 1481.23,1345.73 1421.9,1242.96 		"/>
		<polyline class="st2" points="1481.23,1551.26 1599.9,1551.26 1659.23,1654.03 1599.9,1756.8 1481.23,1756.8 1421.9,1654.03 		"/>
		<polygon class="st2" points="1481.23,1140.2 1599.9,1140.2 1659.23,1242.96 1599.9,1345.73 1481.23,1345.73 1421.9,1242.96 		"/>
		<polygon class="st2" points="1777.89,1859.56 1659.23,1859.56 1599.9,1756.8 1659.23,1654.03 1777.89,1654.03 1837.23,1756.8 		
			"/>
		<polyline class="st2" points="1777.89,1654.03 1659.23,1654.03 1599.9,1551.26 1659.23,1448.5 1777.89,1448.5 		"/>
		<polyline class="st2" points="57.26,934.66 175.92,934.66 235.26,1037.43 175.92,1140.2 57.26,1140.2 -2.07,1037.43 		"/>
		<polyline class="st2" points="353.92,1037.43 235.26,1037.43 175.92,934.66 235.26,831.9 353.92,831.9 413.25,934.66 		"/>
		<polyline class="st2" points="531.92,934.66 591.25,831.9 709.91,831.9 769.25,934.66 709.91,1037.43 591.25,1037.43 		"/>
		<polyline class="st2" points="947.24,1037.43 887.91,1140.2 769.25,1140.2 709.91,1037.43 769.25,934.66 		"/>
		<polyline class="st2" points="1243.9,934.66 1303.24,1037.43 1243.9,1140.2 1125.24,1140.2 1065.91,1037.43 1125.24,934.66 		"/>
		<polygon class="st2" points="175.92,934.66 57.26,934.66 -2.07,831.9 57.26,729.13 175.92,729.13 235.26,831.9 		"/>
		<polyline class="st2" points="235.26,626.36 353.92,626.36 413.25,729.13 353.92,831.9 235.26,831.9 175.92,729.13 		"/>
		<polyline class="st2" points="-120.74,626.36 -2.07,626.36 57.26,729.13 -2.07,831.9 -120.74,831.9 -180.07,729.13 		"/>
		<polygon class="st2" points="531.92,934.66 413.25,934.66 353.92,831.9 413.25,729.13 531.92,729.13 591.25,831.9 		"/>
		<polyline class="st2" points="413.25,934.66 531.92,934.66 591.25,1037.43 531.92,1140.2 413.25,1140.2 353.92,1037.43 		"/>
		<polygon class="st2" points="531.92,1345.73 413.25,1345.73 353.92,1242.96 413.25,1140.2 531.92,1140.2 591.25,1242.96 		"/>
		<polyline class="st2" points="709.91,626.36 769.25,729.13 709.91,831.9 591.25,831.9 531.92,729.13 591.25,626.36 		"/>
		<path class="st2" d="M1866.89,831.9"/>
		<polyline class="st2" points="175.92,523.6 235.26,420.83 353.92,420.83 413.25,523.6 353.92,626.36 235.26,626.36 		"/>
		<polygon class="st2" points="531.92,729.13 413.25,729.13 353.92,626.36 413.25,523.6 531.92,523.6 591.25,626.36 		"/>
		<polyline class="st2" points="235.26,626.36 175.92,729.13 57.26,729.13 -2.07,626.36 57.26,523.6 175.92,523.6 		"/>
		<path class="st2" d="M709.91,626.36"/>
		<polyline class="st2" points="57.26,318.07 -2.07,420.83 -120.74,420.83 -180.07,318.07 -120.74,215.3 -2.07,215.3 		"/>
		<polygon class="st2" points="175.92,523.6 57.26,523.6 -2.07,420.83 57.26,318.07 175.92,318.07 235.26,420.83 		"/>
		<polyline class="st2" points="235.26,420.83 353.92,420.83 413.25,318.07 		"/>
		<polyline class="st2" points="175.92,318.07 235.26,215.3 353.92,215.3 		"/>
		<polygon class="st2" points="175.92,318.07 57.26,318.07 -2.07,215.3 57.26,112.53 175.92,112.53 235.26,215.3 		"/>
		<polyline class="st2" points="413.25,112.53 353.92,215.3 235.26,215.3 		"/>
		<polyline class="st2" points="175.92,112.53 235.26,9.77 353.92,9.77 		"/>
		<polyline class="st2" points="-180.07,112.53 -120.74,9.77 -2.07,9.77 57.26,112.53 -2.07,215.3 -120.74,215.3 		"/>
		<polyline class="st2" points="175.92,-93 235.26,9.77 175.92,112.53 57.26,112.53 -2.07,9.77 		"/>
	</g>
	<g style="clip-path:url(#SVGID_00000029726436114211458230000016981789465609923501_);">
		<g>
			<g>
				<polyline class="st3" points="1417,1448.5 1421.89,1448.5 1424.71,1453.38 				"/>
				<polyline class="st3" points="1424.71,1443.61 1421.89,1448.5 1417,1448.5 				"/>
			</g>
			<rect x="1417" y="1443.61" class="st4" width="9.77" height="9.77"/>
		</g>
		<g>
			<g>
				<polyline class="st3" points="1239.02,1140.2 1243.9,1140.2 1246.73,1145.08 				"/>
				<polyline class="st3" points="1246.73,1135.31 1243.9,1140.2 1239.02,1140.2 				"/>
			</g>
			<rect x="1239.02" y="1135.31" class="st4" width="9.77" height="9.77"/>
		</g>
		<g>
			<g>
				<polyline class="st3" points="883.02,1345.73 887.91,1345.73 890.73,1350.62 				"/>
				<polyline class="st3" points="890.73,1340.84 887.91,1345.73 883.02,1345.73 				"/>
			</g>
			<rect x="883.02" y="1340.84" class="st4" width="9.77" height="9.77"/>
		</g>
		<g>
			<g>
				<polyline class="st3" points="527.03,1551.26 531.92,1551.26 534.74,1556.15 				"/>
				<polyline class="st3" points="534.74,1546.38 531.92,1551.26 527.03,1551.26 				"/>
			</g>
			<rect x="527.03" y="1546.38" class="st4" width="9.77" height="9.77"/>
		</g>
		<g>
			<g>
				<polyline class="st3" points="-6.96,1654.03 -2.07,1654.03 0.75,1658.92 				"/>
				<polyline class="st3" points="0.75,1649.14 -2.07,1654.03 -6.96,1654.03 				"/>
			</g>
			<rect x="-6.96" y="1649.14" class="st4" width="9.77" height="9.77"/>
		</g>
		<g>
			<g>
				<polyline class="st3" points="171.04,1345.73 175.92,1345.73 178.75,1350.62 				"/>
				<polyline class="st3" points="178.75,1340.84 175.92,1345.73 171.04,1345.73 				"/>
			</g>
			<rect x="171.04" y="1340.84" class="st4" width="9.77" height="9.77"/>
		</g>
		<g>
			<g>
				<polyline class="st3" points="171.04,934.66 175.92,934.66 178.75,939.55 				"/>
				<polyline class="st3" points="178.75,929.78 175.92,934.66 171.04,934.66 				"/>
			</g>
			<rect x="171.04" y="929.78" class="st4" width="9.77" height="9.77"/>
		</g>
		<g>
			<g>
				<polyline class="st3" points="527.03,729.13 531.92,729.13 534.74,734.02 				"/>
				<polyline class="st3" points="534.74,724.24 531.92,729.13 527.03,729.13 				"/>
			</g>
			<rect x="527.03" y="724.24" class="st4" width="9.77" height="9.77"/>
		</g>
		<g>
			<g>
				<polyline class="st3" points="-6.96,420.83 -2.07,420.83 0.75,425.72 				"/>
				<polyline class="st3" points="0.75,415.95 -2.07,420.83 -6.96,420.83 				"/>
			</g>
			<rect x="-6.96" y="415.94" class="st4" width="9.77" height="9.77"/>
		</g>
		<g>
			<g>
				<polyline class="st3" points="596.13,1242.96 591.25,1242.96 588.43,1238.08 				"/>
				<polyline class="st3" points="588.43,1247.85 591.25,1242.96 596.13,1242.96 				"/>
			</g>
			
				<rect x="586.36" y="1238.08" transform="matrix(-1 -1.224647e-16 1.224647e-16 -1 1182.4972 2485.9265)" class="st4" width="9.77" height="9.77"/>
		</g>
		<g>
			<g>
				<polyline class="st3" points="1130.12,1551.26 1125.24,1551.26 1122.42,1546.38 				"/>
				<polyline class="st3" points="1122.42,1556.15 1125.24,1551.26 1130.12,1551.26 				"/>
			</g>
			
				<rect x="1120.35" y="1546.38" transform="matrix(-1 -1.224647e-16 1.224647e-16 -1 2250.4775 3102.5254)" class="st4" width="9.77" height="9.77"/>
		</g>
		<g>
			<g>
				<polyline class="st3" points="1664.11,1654.03 1659.23,1654.03 1656.41,1649.14 				"/>
				<polyline class="st3" points="1656.41,1658.92 1659.23,1654.03 1664.11,1654.03 				"/>
			</g>
			
				<rect x="1654.34" y="1649.14" transform="matrix(-1 -1.224647e-16 1.224647e-16 -1 3318.458 3308.0583)" class="st4" width="9.77" height="9.77"/>
		</g>
		<g>
			<g>
				<polyline class="st3" points="418.14,523.6 413.25,523.6 410.43,518.71 				"/>
				<polyline class="st3" points="410.43,528.48 413.25,523.6 418.14,523.6 				"/>
			</g>
			
				<rect x="408.36" y="518.71" transform="matrix(-1 -1.224647e-16 1.224647e-16 -1 826.5037 1047.196)" class="st4" width="9.77" height="9.77"/>
		</g>
	</g>
	<g style="clip-path:url(#SVGID_00000029726436114211458230000016981789465609923501_);">
		<line class="st3" x1="410.43" y1="322.95" x2="413.25" y2="318.07"/>
		<line class="st3" x1="233.84" y1="1245.41" x2="236.67" y2="1240.52"/>
		<line class="st3" x1="232.43" y1="1658.92" x2="235.26" y2="1654.03"/>
		<line class="st3" x1="886.5" y1="1759.24" x2="889.32" y2="1754.35"/>
		<line class="st3" x1="589.84" y1="1450.94" x2="592.66" y2="1446.05"/>
		<line class="st3" x1="1123.83" y1="937.11" x2="1126.65" y2="932.22"/>
		<line class="st3" x1="410.43" y1="117.42" x2="413.25" y2="112.53"/>
		<line class="st3" x1="178.75" y1="-88.11" x2="175.92" y2="-93"/>
		<line class="st3" x1="711.32" y1="628.81" x2="708.5" y2="623.92"/>
		<line class="st3" x1="1.4" y1="1042.32" x2="-1.42" y2="1037.43"/>
		<line class="st3" x1="1247.38" y1="939.55" x2="1244.56" y2="934.66"/>
		<line class="st3" x1="353.92" y1="9.77" x2="347.64" y2="9.77"/>
		<line class="st3" x1="1425.04" y1="1037.43" x2="1418.76" y2="1037.43"/>
		<line class="st3" x1="1779.86" y1="1449.04" x2="1773.58" y2="1449.04"/>
	</g>
</g>
<g>
	<defs>
		<rect id="SVGID_00000106128732410095363990000005268080630496884357_" width="1552.74" height="1500"/>
	</defs>
	<clipPath id="SVGID_00000045599280038978555470000003587403440339479695_">
		<use xlink:href="#SVGID_00000106128732410095363990000005268080630496884357_"  style="overflow:visible;"/>
	</clipPath>
</g>
<g>
	<defs>
		
			<rect id="SVGID_00000063632199674331519480000000939004396515579544_" x="1447.26" transform="matrix(-1 -1.224647e-16 1.224647e-16 -1 4447.2559 1500)" width="1552.74" height="1500"/>
	</defs>
	<clipPath id="SVGID_00000170236445145926926770000002574317554009556671_">
		<use xlink:href="#SVGID_00000063632199674331519480000000939004396515579544_"  style="overflow:visible;"/>
	</clipPath>
</g>
</svg>
