<svg enable-background="new 0 0 64 64" height="64" viewBox="0 0 64 64" width="64" xmlns="http://www.w3.org/2000/svg"><g id="Ebene_2"/><g id="Ebene_1"><path d="m52 39h-24c-2.415 0-4.434 1.721-4.899 4h-8.101v-18h37c2.757 0 5-2.243 5-5s-2.243-5-5-5h-40c-2.757 0-5 2.243-5 5s2.243 5 5 5h1v19c0 .553.448 1 1 1h9.101c.465 2.279 2.484 4 4.899 4h24c2.757 0 5-2.243 5-5s-2.243-5-5-5zm-43-19c0-1.654 1.346-3 3-3h40c1.654 0 3 1.346 3 3s-1.346 3-3 3h-40c-1.654 0-3-1.346-3-3zm43 27h-24c-1.654 0-3-1.346-3-3s1.346-3 3-3h24c1.654 0 3 1.346 3 3s-1.346 3-3 3z"/></g></svg>